TITLE ""
FILE "DISC2Track28.mp3" MP3
  TRACK 01 AUDIO
    TITLE "DISC2Track28_01"
    INDEX 01 00:00:00
  TRACK 02 AUDIO
    TITLE "DISC2Track28_02"
    INDEX 01 00:01:63
  TRACK 03 AUDIO
    TITLE "DISC2Track28_03"
    INDEX 01 00:02:03
  TRACK 04 AUDIO
    TITLE "DISC2Track28_04"
    INDEX 01 00:05:70
  TRACK 05 AUDIO
    TITLE "DISC2Track28_05"
    INDEX 01 00:08:53
  TRACK 06 AUDIO
    TITLE "DISC2Track28_06"
    INDEX 01 00:11:12
  TRACK 07 AUDIO
    TITLE "DISC2Track28_07"
    INDEX 01 00:11:26
  TRACK 08 AUDIO
    TITLE "DISC2Track28_08"
    INDEX 01 00:13:44
  TRACK 09 AUDIO
    TITLE "DISC2Track28_09"
    INDEX 01 00:16:07
  TRACK 10 AUDIO
    TITLE "DISC2Track28_10"
    INDEX 01 00:18:26
  TRACK 11 AUDIO
    TITLE "DISC2Track28_11"
    INDEX 01 00:18:40
  TRACK 12 AUDIO
    TITLE "DISC2Track28_12"
    INDEX 01 00:22:53
  TRACK 13 AUDIO
    TITLE "DISC2Track28_13"
    INDEX 01 00:26:31
  TRACK 14 AUDIO
    TITLE "DISC2Track28_14"
    INDEX 01 00:29:47
  TRACK 15 AUDIO
    TITLE "DISC2Track28_15"
    INDEX 01 00:29:67
  TRACK 16 AUDIO
    TITLE "DISC2Track28_16"
    INDEX 01 00:33:22
  TRACK 17 AUDIO
    TITLE "DISC2Track28_17"
    INDEX 01 00:35:69
  TRACK 18 AUDIO
    TITLE "DISC2Track28_18"
    INDEX 01 00:38:09
  TRACK 19 AUDIO
    TITLE "DISC2Track28_19"
    INDEX 01 00:38:25
  TRACK 20 AUDIO
    TITLE "DISC2Track28_20"
    INDEX 01 00:41:31
  TRACK 21 AUDIO
    TITLE "DISC2Track28_21"
    INDEX 01 00:44:72
  TRACK 22 AUDIO
    TITLE "DISC2Track28_22"
    INDEX 01 00:48:07
  TRACK 23 AUDIO
    TITLE "DISC2Track28_23"
    INDEX 01 00:48:23
  TRACK 24 AUDIO
    TITLE "DISC2Track28_24"
    INDEX 01 00:51:64
  TRACK 25 AUDIO
    TITLE "DISC2Track28_25"
    INDEX 01 00:55:09
  TRACK 26 AUDIO
    TITLE "DISC2Track28_26"
    INDEX 01 00:57:67
  TRACK 27 AUDIO
    TITLE "DISC2Track28_27"
    INDEX 01 00:58:10
  TRACK 28 AUDIO
    TITLE "DISC2Track28_28"
    INDEX 01 01:01:51
  TRACK 29 AUDIO
    TITLE "DISC2Track28_29"
    INDEX 01 01:04:73
  TRACK 30 AUDIO
    TITLE "DISC2Track28_30"
    INDEX 01 01:07:64
  TRACK 31 AUDIO
    TITLE "DISC2Track28_31"
    INDEX 01 01:08:04
  TRACK 32 AUDIO
    TITLE "DISC2Track28_32"
    INDEX 01 01:09:47
  TRACK 33 AUDIO
    TITLE "DISC2Track28_33"
    INDEX 01 01:11:59
  TRACK 34 AUDIO
    TITLE "DISC2Track28_34"
    INDEX 01 01:13:45
  TRACK 35 AUDIO
    TITLE "DISC2Track28_35"
    INDEX 01 01:13:62
  TRACK 36 AUDIO
    TITLE "DISC2Track28_36"
    INDEX 01 01:19:08
  TRACK 37 AUDIO
    TITLE "DISC2Track28_37"
    INDEX 01 01:23:43
  TRACK 38 AUDIO
    TITLE "DISC2Track28_38"
    INDEX 01 01:27:52
  TRACK 39 AUDIO
    TITLE "DISC2Track28_39"
    INDEX 01 01:27:66
  TRACK 40 AUDIO
    TITLE "DISC2Track28_40"
    INDEX 01 01:31:70
  TRACK 41 AUDIO
    TITLE "DISC2Track28_41"
    INDEX 01 01:34:62
  TRACK 42 AUDIO
    TITLE "DISC2Track28_42"
    INDEX 01 01:37:22
  TRACK 43 AUDIO
    TITLE "DISC2Track28_43"
    INDEX 01 01:37:37
  TRACK 44 AUDIO
    TITLE "DISC2Track28_44"
    INDEX 01 01:39:34
  TRACK 45 AUDIO
    TITLE "DISC2Track28_45"
    INDEX 01 01:41:43
  TRACK 46 AUDIO
    TITLE "DISC2Track28_46"
    INDEX 01 01:43:24
  TRACK 47 AUDIO
    TITLE "DISC2Track28_47"
    INDEX 01 01:43:42
  TRACK 48 AUDIO
    TITLE "DISC2Track28_48"
    INDEX 01 01:47:63
  TRACK 49 AUDIO
    TITLE "DISC2Track28_49"
    INDEX 01 01:52:07
  TRACK 50 AUDIO
    TITLE "DISC2Track28_50"
    INDEX 01 01:56:05
